<svg width="392" height="393" viewBox="0 0 392 393" fill="none" xmlns="http://www.w3.org/2000/svg">
<circle cx="218" cy="174" r="174" fill="#23539A" fill-opacity="0.21"/>
<g clip-path="url(#clip0)">
<path d="M153.809 385.332C153.809 389.183 119.334 389.594 76.9044 392.306C34.514 395.015 0 389.183 0 385.332C0 381.481 34.673 373.731 76.9044 378.359C119.334 383.008 153.809 381.481 153.809 385.332Z" fill="#E6E6E6"/>
<path d="M315.969 141H224.814C220.415 141 216.147 142.531 212.712 145.34C209.277 148.149 206.878 152.07 205.911 156.459L159.852 365.38C159.35 367.658 159.341 370.022 159.826 372.305C160.311 374.587 161.279 376.734 162.661 378.593C164.044 380.453 165.807 381.981 167.828 383.07C169.848 384.16 172.078 384.784 174.359 384.898L268.067 389.62C273.085 389.873 278.021 388.25 281.955 385.054C285.888 381.859 288.551 377.309 289.445 372.253L315.572 224.544L317.516 225.112L322.515 197.115L320.514 196.604L327.807 155.373C328.12 153.607 328.047 151.792 327.595 150.058C327.143 148.324 326.322 146.713 325.192 145.34C324.061 143.968 322.648 142.867 321.054 142.117C319.46 141.367 317.723 140.986 315.969 141L315.969 141Z" fill="#3F3D56"/>
<path d="M236.814 145.504H226.174C223.118 145.504 220.154 146.573 217.774 148.533C215.394 150.493 213.742 153.226 213.09 156.28L168.88 363.496C168.626 364.689 168.626 365.924 168.881 367.117C169.136 368.31 169.64 369.433 170.358 370.408C171.076 371.384 171.992 372.19 173.042 372.77C174.092 373.351 175.253 373.693 176.445 373.773L269.849 380.033C272.484 380.209 275.091 379.388 277.171 377.724C279.251 376.061 280.66 373.672 281.128 371.015L318.853 156.836C319.097 155.45 319.041 154.026 318.688 152.664C318.335 151.303 317.694 150.037 316.811 148.956C315.928 147.875 314.823 147.006 313.575 146.41C312.327 145.813 310.967 145.504 309.589 145.504H299.495C298.518 145.504 297.569 145.834 296.793 146.441C296.018 147.049 295.46 147.901 295.206 148.866C294.982 149.718 294.489 150.47 293.804 151.007C293.12 151.543 292.281 151.834 291.419 151.834H243.498C241.809 151.834 240.183 151.182 238.943 150.008C237.704 148.835 236.944 147.226 236.814 145.504V145.504Z" fill="white"/>
<path d="M136.833 252.09L145.068 268.763L169.693 280.211C172.323 284.756 180.679 285.104 181.287 282.165C181.969 278.868 171.139 273.561 171.139 273.561L150.543 259.314L148.741 247.05L136.833 252.09Z" fill="#A0616A"/>
<path d="M137.804 363.981L136.285 376.407L145.094 377.028L146.006 363.981H137.804Z" fill="#A0616A"/>
<path d="M139.019 374.543C138.232 373.691 137.505 372.783 136.846 371.824C135.583 370.038 134.463 379.202 134.463 379.202C134.463 379.202 133.248 382.93 133.552 384.794C133.855 386.658 140.842 386.658 142.057 386.347C143.272 386.036 149.347 386.347 149.347 386.347H158.46C166.358 382.619 158.46 380.134 158.46 380.134C156.03 379.824 147.828 372.058 147.828 372.058L146.006 368.641C144.791 368.33 143.576 372.99 143.576 372.99L139.019 374.543Z" fill="#2F2E41"/>
<path d="M115.022 364.136L113.503 376.562L122.312 377.183L123.224 364.136H115.022Z" fill="#A0616A"/>
<path d="M116.237 374.698C115.45 373.847 114.723 372.938 114.063 371.98C112.801 370.193 111.681 379.358 111.681 379.358C111.681 379.358 110.466 382.775 110.769 384.639C111.073 386.502 118.06 386.502 119.275 386.192C120.49 385.881 126.565 386.502 126.565 386.502H135.678C143.576 382.775 135.678 380.29 135.678 380.29C133.248 379.979 125.046 372.213 125.046 372.213L123.224 368.796C122.009 368.485 120.794 373.145 120.794 373.145L116.237 374.698Z" fill="#2F2E41"/>
<path d="M125.046 283.992C123.831 285.545 124.439 290.826 124.439 290.826C124.439 290.826 122.312 307.911 123.224 309.464C124.135 311.017 122.616 312.26 121.705 314.434C120.794 316.609 119.882 321.89 119.882 321.89C114.718 326.239 115.022 346.119 115.022 346.119L113.199 363.826C113.807 365.69 122.312 366 123.527 365.69C124.742 365.379 128.388 337.422 128.388 337.422L136.589 321.579C136.589 321.579 135.982 363.826 135.982 365.69C135.982 367.554 144.183 366.622 146.006 366.622C147.828 366.622 147.828 335.558 147.828 335.558L149.651 327.481L159.371 290.515V286.166L157.853 283.992C157.853 283.992 126.261 282.438 125.046 283.992Z" fill="#2F2E41"/>
<path d="M138.412 213.477C143.612 213.477 147.828 209.165 147.828 203.847C147.828 198.528 143.612 194.217 138.412 194.217C133.211 194.217 128.995 198.528 128.995 203.847C128.995 209.165 133.211 213.477 138.412 213.477Z" fill="#A0616A"/>
<path d="M143.12 208.351C141.211 212.698 142.342 218.769 146.158 225.436L130.666 217.981L133.096 215.806L132.488 209.594L143.12 208.351Z" fill="#A0616A"/>
<path d="M143.12 218.292C145.149 219.525 146.362 221.791 147.059 224.097C148.349 228.366 149.125 232.78 149.371 237.242L150.107 250.598L159.219 286.011C151.322 292.845 146.765 291.292 136.134 285.7C125.502 280.109 124.287 287.564 124.287 287.564C124.287 287.564 123.376 287.253 124.287 286.321C125.198 285.389 124.287 286.321 123.376 285.389C122.464 284.458 123.376 285.389 123.679 284.458C123.983 283.526 123.679 284.147 123.376 283.836C123.072 283.526 124.591 280.73 124.591 280.73L122.16 257.432L119.123 224.504C122.768 219.845 133.096 215.806 133.096 215.806L142.513 222.64C145.55 223.883 143.12 218.913 143.12 218.913L143.12 218.292Z" fill="#275DAD"/>
<path d="M114.111 244.23L112.896 262.868L128.388 285.545C128.388 290.826 131.121 292.068 131.121 292.068C132.157 290.378 133.071 288.613 133.855 286.787C135.374 283.37 132.944 280.575 132.944 280.575L122.312 257.587L126.869 246.094L114.111 244.23Z" fill="#A0616A"/>
<path d="M119.275 224.66C114.111 226.523 113.2 246.715 113.2 246.715C119.275 243.298 126.565 248.889 126.565 248.889C126.565 248.889 128.084 243.609 129.906 236.775C130.457 234.852 130.523 232.819 130.098 230.863C129.673 228.908 128.771 227.095 127.476 225.592C127.476 225.592 124.439 222.796 119.275 224.66Z" fill="#275DAD"/>
<path d="M129.755 206.798C130.953 205.817 132.589 207.6 132.589 207.6L133.548 198.773C133.548 198.773 139.542 199.509 143.378 198.528C147.214 197.547 147.813 202.083 147.813 202.083C148.011 200.251 148.051 198.405 147.933 196.567C147.693 194.36 144.577 192.153 139.062 190.682C133.548 189.211 130.671 195.586 130.671 195.586C126.835 197.547 128.556 207.779 129.755 206.798Z" fill="#2F2E41"/>
<path d="M289.821 290.366C290.004 290.373 290.183 290.313 290.327 290.197C290.47 290.081 290.568 289.916 290.603 289.732L311.548 173.152C311.567 173.041 311.563 172.927 311.536 172.818C311.508 172.708 311.457 172.607 311.387 172.519C311.317 172.432 311.229 172.362 311.13 172.313C311.03 172.264 310.922 172.238 310.811 172.237L215.523 171.102H215.515C215.343 171.102 215.176 171.163 215.042 171.273C214.907 171.383 214.813 171.536 214.775 171.707L190.085 284.503C190.061 284.613 190.06 284.728 190.084 284.838C190.107 284.948 190.154 285.052 190.221 285.142C190.288 285.232 190.373 285.305 190.471 285.358C190.569 285.411 190.677 285.441 190.787 285.446L289.821 290.366Z" fill="#E6E6E6"/>
<path d="M206.896 297.813C206.81 297.813 206.727 297.843 206.66 297.897C206.594 297.952 206.547 298.028 206.527 298.113L205.647 301.97C205.635 302.024 205.634 302.081 205.645 302.136C205.656 302.191 205.679 302.243 205.711 302.288C205.744 302.333 205.786 302.37 205.834 302.397C205.882 302.424 205.935 302.44 205.989 302.444L255.704 306.058C255.797 306.064 255.888 306.035 255.961 305.978C256.034 305.921 256.085 305.838 256.103 305.745L256.95 301.283C256.96 301.229 256.959 301.173 256.946 301.119C256.934 301.066 256.91 301.015 256.877 300.972C256.844 300.928 256.802 300.892 256.755 300.866C256.707 300.841 256.654 300.826 256.6 300.822L206.919 297.814C206.911 297.814 206.903 297.813 206.896 297.813Z" fill="#E6E6E6"/>
<path d="M267.296 320.389C267.386 320.396 267.475 320.371 267.548 320.317C267.621 320.263 267.673 320.185 267.695 320.096L268.772 315.624C268.785 315.569 268.786 315.512 268.776 315.456C268.765 315.401 268.743 315.348 268.71 315.303C268.677 315.257 268.635 315.219 268.587 315.192C268.539 315.164 268.485 315.148 268.43 315.144L204.942 310.604C204.856 310.597 204.77 310.62 204.699 310.671C204.628 310.721 204.576 310.795 204.552 310.88L203.433 314.744C203.417 314.799 203.413 314.858 203.422 314.915C203.43 314.971 203.451 315.026 203.483 315.073C203.515 315.121 203.557 315.16 203.606 315.189C203.655 315.218 203.709 315.236 203.765 315.24L267.296 320.389Z" fill="#E6E6E6"/>
<path d="M263.887 334.724C263.977 334.731 264.066 334.705 264.139 334.652C264.212 334.598 264.264 334.519 264.285 334.43L265.362 329.958C265.376 329.903 265.377 329.846 265.366 329.791C265.355 329.735 265.333 329.683 265.3 329.637C265.268 329.591 265.226 329.554 265.178 329.526C265.129 329.499 265.076 329.483 265.021 329.479L201.532 324.938C201.446 324.931 201.36 324.955 201.289 325.005C201.218 325.055 201.166 325.129 201.143 325.214L200.023 329.078C200.007 329.134 200.003 329.192 200.012 329.249C200.021 329.306 200.042 329.36 200.074 329.408C200.106 329.455 200.147 329.495 200.196 329.524C200.245 329.553 200.3 329.57 200.356 329.574L263.887 334.724Z" fill="#E6E6E6"/>
<path d="M234.647 359.315C234.737 359.324 234.828 359.3 234.902 359.246C234.976 359.193 235.029 359.113 235.05 359.023L237.328 349.705C237.341 349.651 237.343 349.594 237.332 349.539C237.322 349.483 237.3 349.431 237.268 349.385C237.236 349.34 237.195 349.302 237.147 349.274C237.1 349.246 237.047 349.229 236.992 349.225L198.003 345.871C197.912 345.865 197.822 345.891 197.748 345.947C197.675 346.002 197.623 346.082 197.602 346.173L195.658 355.116C195.647 355.169 195.647 355.225 195.657 355.279C195.668 355.332 195.69 355.383 195.722 355.428C195.754 355.472 195.794 355.509 195.841 355.536C195.888 355.563 195.939 355.58 195.993 355.585L234.647 359.315Z" fill="#275DAD"/>
</g>
<defs>
<clipPath id="clip0">
<rect width="328" height="252" fill="white" transform="translate(0 141)"/>
</clipPath>
</defs>
</svg>
