<svg width="345" height="265" viewBox="0 0 345 265" fill="none" xmlns="http://www.w3.org/2000/svg">
<path d="M79.4394 183.395L106.15 141.404L46.3301 103.377L15.4373 151.943L64.9163 183.395H79.4394Z" fill="#F0F0F0"/>
<path d="M117.291 196.495H51.127V183.181H117.291V196.495ZM51.9863 195.636H116.432V184.04H51.9863V195.636Z" fill="#3F3D56"/>
<path d="M109.128 194.133C111.501 194.133 113.425 192.21 113.425 189.838C113.425 187.466 111.501 185.543 109.128 185.543C106.755 185.543 104.832 187.466 104.832 189.838C104.832 192.21 106.755 194.133 109.128 194.133Z" fill="#275DAD"/>
<path d="M97.0984 194.133C99.4712 194.133 101.395 192.21 101.395 189.838C101.395 187.466 99.4712 185.543 97.0984 185.543C94.7256 185.543 92.802 187.466 92.802 189.838C92.802 192.21 94.7256 194.133 97.0984 194.133Z" fill="#275DAD"/>
<path d="M85.0685 194.133C87.4413 194.133 89.3649 192.21 89.3649 189.838C89.3649 187.466 87.4413 185.543 85.0685 185.543C82.6957 185.543 80.7721 187.466 80.7721 189.838C80.7721 192.21 82.6957 194.133 85.0685 194.133Z" fill="#275DAD"/>
<path d="M73.0386 194.133C75.4114 194.133 77.335 192.21 77.335 189.838C77.335 187.466 75.4114 185.543 73.0386 185.543C70.6658 185.543 68.7422 187.466 68.7422 189.838C68.7422 192.21 70.6658 194.133 73.0386 194.133Z" fill="#275DAD"/>
<path d="M61.0087 194.133C63.3816 194.133 65.3051 192.21 65.3051 189.838C65.3051 187.466 63.3816 185.543 61.0087 185.543C58.6359 185.543 56.7123 187.466 56.7123 189.838C56.7123 192.21 58.6359 194.133 61.0087 194.133Z" fill="#275DAD"/>
<path d="M195.915 48.5332V15.8914H212.242V0H132.329V79.8866H200.641V72.0759C200.641 70.6199 200.928 69.1781 201.486 67.833C202.043 66.4878 202.86 65.2656 203.89 64.236C204.92 63.2065 206.142 62.3898 207.488 61.8326C208.834 61.2754 210.276 60.9887 211.732 60.9887H212.242V48.5332H195.915Z" fill="#F0F0F0"/>
<path d="M284.421 206.159H231.146V217.326H284.421V206.159Z" fill="#275DAD"/>
<path d="M296.021 151.183H217.827V161.491H296.021V151.183Z" fill="#F0F0F0"/>
<path d="M334.259 264.141H0V265H334.259V264.141Z" fill="#3F3D56"/>
<path d="M309.42 265H211.732C208.678 264.996 205.75 263.782 203.59 261.623C201.43 259.464 200.215 256.537 200.212 253.483V72.0759C200.215 69.0225 201.43 66.0952 203.59 63.9362C205.75 61.7771 208.678 60.5626 211.732 60.5592H309.42C312.474 60.5626 315.402 61.7771 317.562 63.9362C319.722 66.0952 320.937 69.0225 320.94 72.0759V253.483C320.937 256.537 319.722 259.464 317.562 261.623C315.402 263.782 312.474 264.996 309.42 265V265ZM211.732 61.4182C208.906 61.4214 206.196 62.5453 204.197 64.5433C202.198 66.5413 201.074 69.2503 201.071 72.0759V253.483C201.074 256.309 202.198 259.018 204.197 261.016C206.196 263.014 208.906 264.138 211.732 264.141H309.42C312.246 264.138 314.956 263.014 316.955 261.016C318.953 259.018 320.078 256.309 320.081 253.483V72.0759C320.078 69.2503 318.953 66.5413 316.955 64.5433C314.956 62.5453 312.246 61.4214 309.42 61.4182H211.732Z" fill="#3F3D56"/>
<path d="M248.976 69.1491C248.466 69.1491 247.967 68.998 247.544 68.7148C247.12 68.4317 246.789 68.0292 246.594 67.5583C246.399 67.0874 246.348 66.5693 246.447 66.0694C246.547 65.5695 246.792 65.1103 247.153 64.7499C247.513 64.3895 247.973 64.1441 248.473 64.0447C248.973 63.9452 249.491 63.9962 249.962 64.1913C250.433 64.3863 250.836 64.7166 251.119 65.1404C251.402 65.5642 251.554 66.0624 251.554 66.5721C251.553 67.2554 251.281 67.9104 250.798 68.3935C250.314 68.8766 249.659 69.1484 248.976 69.1491V69.1491ZM248.976 64.8541C248.636 64.8541 248.304 64.9549 248.021 65.1437C247.738 65.3324 247.518 65.6008 247.388 65.9147C247.258 66.2286 247.224 66.574 247.29 66.9073C247.356 67.2405 247.52 67.5467 247.76 67.7869C248.001 68.0272 248.307 68.1908 248.64 68.2571C248.974 68.3234 249.319 68.2894 249.633 68.1593C249.947 68.0293 250.216 67.8091 250.405 67.5266C250.593 67.2441 250.694 66.9119 250.694 66.5721C250.694 66.1166 250.513 65.6799 250.19 65.3579C249.868 65.0358 249.431 64.8546 248.976 64.8541V64.8541Z" fill="#3F3D56"/>
<path d="M274.324 66.1426H255.42V67.0016H274.324V66.1426Z" fill="#3F3D56"/>
<path d="M313.207 73.0146V107.374C304.091 107.374 295.349 103.754 288.903 97.3102C282.457 90.8666 278.836 82.1272 278.836 73.0146H313.207Z" fill="#275DAD"/>
<path d="M313.636 253.404H207.516V72.5851H313.636V253.404ZM208.375 252.545H312.777V73.4441H208.375V252.545Z" fill="#3F3D56"/>
<path opacity="0.1" d="M288.288 105.227C294.694 105.227 299.888 100.035 299.888 93.6305C299.888 87.2259 294.694 82.034 288.288 82.034C281.881 82.034 276.687 87.2259 276.687 93.6305C276.687 100.035 281.881 105.227 288.288 105.227Z" fill="black"/>
<path d="M286.569 106.515C292.976 106.515 298.169 101.323 298.169 94.919C298.169 88.5144 292.976 83.3225 286.569 83.3225C280.162 83.3225 274.969 88.5144 274.969 94.919C274.969 101.323 280.162 106.515 286.569 106.515Z" fill="#275DAD"/>
<path d="M228.568 79.8866H212.242V85.8995H228.568V79.8866Z" fill="#3F3D56"/>
<path d="M237.59 137.01H221.264V143.023H237.59V137.01Z" fill="#3F3D56"/>
<path d="M300.318 159.344H221.264V148.177H300.318V159.344ZM222.123 158.485H299.458V149.036H222.123V158.485Z" fill="#3F3D56"/>
<path d="M296.021 183.825H217.827V194.133H296.021V183.825Z" fill="#F0F0F0"/>
<path d="M237.59 169.652H221.264V175.665H237.59V169.652Z" fill="#3F3D56"/>
<path d="M300.318 191.985H221.264V180.818H300.318V191.985ZM222.123 191.126H299.458V181.677H222.123V191.126Z" fill="#3F3D56"/>
<path d="M287.858 214.749H233.724V202.723H287.858V214.749ZM234.583 213.89H286.999V203.582H234.583V213.89Z" fill="#3F3D56"/>
<path d="M298.169 155.049C298.169 155.933 297.896 156.795 297.387 157.519C296.879 158.242 296.159 158.791 295.327 159.09C294.495 159.389 293.59 159.425 292.737 159.191C291.884 158.957 291.124 158.466 290.56 157.785L290.556 157.78C290.145 157.282 289.852 156.698 289.699 156.071C289.545 155.444 289.534 154.791 289.668 154.159C289.802 153.528 290.076 152.935 290.471 152.424C290.865 151.913 291.37 151.497 291.947 151.208C292.524 150.919 293.159 150.764 293.805 150.754C294.451 150.744 295.09 150.88 295.676 151.151C296.262 151.422 296.779 151.822 297.189 152.321C297.599 152.819 297.892 153.404 298.045 154.031C298.045 154.031 298.045 154.032 298.045 154.032C298.045 154.033 298.046 154.033 298.046 154.034C298.046 154.034 298.047 154.034 298.047 154.035C298.048 154.035 298.048 154.035 298.049 154.035C298.128 154.367 298.169 154.707 298.169 155.049V155.049Z" fill="#275DAD"/>
<path opacity="0.1" d="M298.169 155.049C298.169 155.933 297.896 156.795 297.387 157.519C296.879 158.242 296.159 158.791 295.327 159.09C294.495 159.389 293.59 159.425 292.737 159.191C291.884 158.957 291.124 158.466 290.56 157.785L290.556 157.78C290.477 157.448 290.436 157.108 290.436 156.767C290.436 155.882 290.709 155.02 291.218 154.296C291.726 153.573 292.446 153.024 293.278 152.725C294.111 152.426 295.015 152.391 295.868 152.624C296.721 152.858 297.481 153.349 298.045 154.031C298.045 154.031 298.045 154.032 298.045 154.032C298.045 154.033 298.046 154.033 298.046 154.034C298.046 154.034 298.047 154.034 298.047 154.035C298.048 154.035 298.048 154.035 298.049 154.035C298.128 154.367 298.169 154.707 298.169 155.049V155.049Z" fill="black"/>
<path d="M295.592 161.921C297.964 161.921 299.888 159.998 299.888 157.626C299.888 155.254 297.964 153.331 295.592 153.331C293.219 153.331 291.295 155.254 291.295 157.626C291.295 159.998 293.219 161.921 295.592 161.921Z" fill="#275DAD"/>
<path d="M298.169 187.69C298.169 188.575 297.896 189.437 297.387 190.161C296.879 190.884 296.159 191.433 295.327 191.732C294.495 192.031 293.59 192.066 292.737 191.833C291.884 191.599 291.124 191.108 290.56 190.426L290.556 190.422C290.145 189.924 289.852 189.34 289.699 188.713C289.545 188.086 289.534 187.433 289.668 186.801C289.802 186.17 290.076 185.576 290.471 185.066C290.865 184.555 291.37 184.139 291.947 183.85C292.524 183.561 293.159 183.406 293.805 183.396C294.451 183.386 295.09 183.522 295.676 183.793C296.262 184.064 296.779 184.464 297.189 184.962C297.599 185.461 297.892 186.045 298.045 186.673C298.045 186.673 298.045 186.674 298.045 186.674C298.045 186.675 298.046 186.675 298.046 186.676C298.046 186.676 298.047 186.676 298.047 186.677C298.048 186.677 298.048 186.677 298.049 186.677C298.128 187.009 298.169 187.349 298.169 187.69V187.69Z" fill="#275DAD"/>
<path opacity="0.1" d="M298.169 187.69C298.169 188.575 297.896 189.437 297.387 190.161C296.879 190.884 296.159 191.433 295.327 191.732C294.495 192.031 293.59 192.066 292.737 191.833C291.884 191.599 291.124 191.108 290.56 190.426L290.556 190.422C290.477 190.09 290.436 189.75 290.436 189.408C290.436 188.524 290.709 187.662 291.218 186.938C291.726 186.215 292.446 185.666 293.278 185.367C294.111 185.068 295.015 185.032 295.868 185.266C296.721 185.5 297.481 185.991 298.045 186.673C298.045 186.673 298.045 186.674 298.045 186.674C298.045 186.675 298.046 186.675 298.046 186.676C298.046 186.676 298.047 186.676 298.047 186.677C298.048 186.677 298.048 186.677 298.049 186.677C298.128 187.009 298.169 187.349 298.169 187.69V187.69Z" fill="black"/>
<path d="M295.592 194.562C297.964 194.562 299.888 192.639 299.888 190.267C299.888 187.895 297.964 185.972 295.592 185.972C293.219 185.972 291.295 187.895 291.295 190.267C291.295 192.639 293.219 194.562 295.592 194.562Z" fill="#275DAD"/>
<path d="M223.412 20.6159H201.071V42.9498H223.412V20.6159Z" fill="#F0F0F0"/>
<path d="M288.288 36.9368C287.268 36.9368 286.271 36.6345 285.423 36.0682C284.575 35.5019 283.915 34.6969 283.524 33.7552C283.134 32.8134 283.032 31.7771 283.231 30.7773C283.43 29.7776 283.921 28.8592 284.642 28.1384C285.363 27.4176 286.282 26.9267 287.282 26.7279C288.282 26.529 289.319 26.6311 290.261 27.0212C291.203 27.4113 292.008 28.0719 292.574 28.9194C293.141 29.767 293.443 30.7635 293.443 31.7828C293.442 33.1493 292.898 34.4593 291.932 35.4255C290.965 36.3918 289.655 36.9353 288.288 36.9368V36.9368ZM288.288 27.4878C287.438 27.4878 286.607 27.7397 285.901 28.2117C285.194 28.6836 284.644 29.3544 284.318 30.1392C283.993 30.924 283.908 31.7876 284.074 32.6207C284.24 33.4539 284.649 34.2192 285.25 34.8198C285.851 35.4205 286.616 35.8295 287.449 35.9953C288.283 36.161 289.147 36.0759 289.932 35.7509C290.717 35.4258 291.388 34.8753 291.86 34.169C292.332 33.4627 292.584 32.6323 292.584 31.7828C292.583 30.6441 292.13 29.5524 291.324 28.7472C290.519 27.9421 289.427 27.4891 288.288 27.4878V27.4878Z" fill="#3F3D56"/>
<path d="M174.863 108.663H163.692V97.4959H174.863V108.663ZM164.552 107.804H174.004V98.3549H164.552V107.804Z" fill="#3F3D56"/>
<path d="M345 191.985H333.829V180.818H345V191.985ZM334.689 191.126H344.141V181.677H334.689V191.126Z" fill="#3F3D56"/>
<path d="M124.596 117.11L126.513 118.142L133.036 121.656L143.567 127.328L149.704 115.946C150.282 114.876 150.643 113.703 150.767 112.494C150.891 111.285 150.775 110.063 150.426 108.898C150.077 107.734 149.502 106.65 148.733 105.708C147.965 104.766 147.018 103.985 145.947 103.409C143.658 102.174 141.036 101.696 138.459 102.046C135.881 102.395 133.482 103.554 131.605 105.354L131.602 105.358C130.678 106.244 129.899 107.269 129.292 108.396L124.596 117.11Z" fill="#2F2E41"/>
<path d="M153.338 233.19L152.052 247.337L147.227 247.98L144.011 231.904L153.338 233.19Z" fill="#FFB8B8"/>
<path d="M145.94 247.981C145.94 247.981 152.052 244.765 153.338 247.337C153.338 247.337 152.373 255.054 156.233 256.019C160.093 256.983 161.701 263.736 156.233 264.379C150.765 265.022 147.227 263.093 145.297 263.093C143.367 263.093 145.297 256.34 145.297 256.34L145.94 247.981Z" fill="#2F2E41"/>
<path d="M114.42 233.19L115.706 247.337L120.531 247.98L123.747 231.904L114.42 233.19Z" fill="#FFB8B8"/>
<path d="M121.817 247.981C121.817 247.981 115.706 244.765 114.42 247.337C114.42 247.337 115.385 255.054 111.525 256.019C107.665 256.983 106.057 263.736 111.525 264.379C116.993 265.022 120.531 263.093 122.461 263.093C124.391 263.093 122.461 256.34 122.461 256.34L121.817 247.981Z" fill="#2F2E41"/>
<path d="M140.794 119.688C145.413 119.688 149.157 115.945 149.157 111.328C149.157 106.711 145.413 102.968 140.794 102.968C136.176 102.968 132.432 106.711 132.432 111.328C132.432 115.945 136.176 119.688 140.794 119.688Z" fill="#FFB8B8"/>
<path d="M114.098 127.727L120.852 138.337L128.893 137.694L142.081 138.659C142.081 138.659 143.325 136.17 144.342 133.749C144.898 132.54 145.326 131.276 145.619 129.977C145.94 127.727 141.437 125.476 141.437 125.476C141.437 125.476 141.261 125.444 140.965 125.373C140.572 125.28 139.968 125.125 139.305 124.9C137.809 124.392 136.011 123.531 135.648 122.261C135.005 120.01 139.829 116.795 139.829 116.795L134.04 111.328C134.04 111.328 128.897 118.47 122.65 120.097C122.288 120.192 121.921 120.267 121.55 120.322C121.531 120.325 121.515 120.328 121.496 120.331C114.741 121.296 114.098 127.727 114.098 127.727Z" fill="#FFB8B8"/>
<path d="M117.636 124.833L114.098 127.727C114.098 127.727 111.203 141.553 112.168 145.411C113.133 149.269 111.847 152.806 111.847 153.449C111.847 154.092 108.952 178.208 108.952 178.208C108.952 178.208 103.162 191.069 109.273 189.783C115.385 188.497 113.133 175.635 113.133 175.635L120.531 153.128V134.157L117.636 124.833Z" fill="#FFB8B8"/>
<path d="M143.046 127.405L145.619 129.334L146.905 156.343L156.555 179.494C156.555 179.494 163.631 190.747 159.128 191.069C154.625 191.39 151.73 179.494 151.73 179.494L143.046 157.308L141.759 135.765L143.046 127.405Z" fill="#FFB8B8"/>
<path d="M126.964 129.334C126.964 129.334 133.396 133.836 143.689 132.228C143.689 132.228 146.584 138.016 144.976 141.231C143.367 144.446 146.905 152.163 147.549 153.128C148.192 154.092 155.59 174.028 158.163 195.57C160.736 217.113 167.812 231.904 161.701 233.833C155.59 235.762 143.046 238.013 141.759 236.084C140.473 234.155 138.543 186.246 138.543 186.246L135.005 204.573C135.005 204.573 139.829 235.762 136.291 236.405C132.753 237.048 110.56 235.119 111.203 231.261C111.847 227.402 118.279 207.146 118.279 207.146C118.279 207.146 117.958 166.632 124.391 158.915C124.391 158.915 126.964 154.736 123.426 149.269C119.888 143.803 120.209 135.122 120.209 135.122C120.209 135.122 122.782 135.122 126.964 129.334Z" fill="#2F2E41"/>
<path d="M121.55 120.322L126.964 132.228L128.25 131.585L122.65 120.097L121.55 120.322Z" fill="#2F2E41"/>
<path d="M139.305 124.9L143.367 133.836L144.342 133.749L144.011 132.228L140.965 125.373C140.572 125.28 139.968 125.125 139.305 124.9Z" fill="#2F2E41"/>
<path d="M126.513 118.142C126.823 119.136 127.419 120.018 128.227 120.675C129.035 121.333 130.019 121.737 131.056 121.838C132.093 121.939 133.137 121.732 134.057 121.243C134.977 120.753 135.731 120.003 136.227 119.087C132.158 113.769 135.648 110.428 142.258 107.901C142.755 106.977 142.967 105.926 142.866 104.882C142.764 103.837 142.355 102.847 141.688 102.036C139.866 101.803 138.016 101.98 136.271 102.554C134.526 103.128 132.932 104.085 131.605 105.354L131.602 105.358L126.906 114.065C126.571 114.684 126.364 115.363 126.297 116.063C126.229 116.764 126.303 117.47 126.513 118.142V118.142Z" fill="#2F2E41"/>
<path d="M135.809 114.222C136.431 114.222 136.935 113.358 136.935 112.293C136.935 111.228 136.431 110.364 135.809 110.364C135.187 110.364 134.683 111.228 134.683 112.293C134.683 113.358 135.187 114.222 135.809 114.222Z" fill="#FFB8B8"/>
<path d="M139.163 109.145L148.832 113.524L150.604 109.615C150.299 108.186 149.66 106.849 148.739 105.714L142.084 102.702L139.163 109.145Z" fill="#2F2E41"/>
<path d="M162.404 195.421C164.776 195.421 166.7 193.498 166.7 191.126C166.7 188.754 164.776 186.831 162.404 186.831C160.031 186.831 158.107 188.754 158.107 191.126C158.107 193.498 160.031 195.421 162.404 195.421Z" fill="#275DAD"/>
<path d="M24.4707 220.954C26.0215 220.954 27.2786 219.697 27.2786 218.147C27.2786 216.596 26.0215 215.34 24.4707 215.34C22.92 215.34 21.6629 216.596 21.6629 218.147C21.6629 219.697 22.92 220.954 24.4707 220.954Z" fill="#FF6584"/>
<path d="M38.6568 232.776H37.7975V264.735H38.6568V232.776Z" fill="#3F3D56"/>
<path d="M38.2272 237.295C40.7241 237.295 42.7483 235.272 42.7483 232.776C42.7483 230.28 40.7241 228.256 38.2272 228.256C35.7304 228.256 33.7062 230.28 33.7062 232.776C33.7062 235.272 35.7304 237.295 38.2272 237.295Z" fill="#3F3D56"/>
<path d="M38.2272 252.473C38.2272 252.473 37.5814 238.587 24.3413 240.201Z" fill="#3F3D56"/>
</svg>
